<svg version="1.1" viewBox="0.0 0.0 986.1889763779527 786.7690288713911" fill="none" stroke="none"
    stroke-linecap="square" stroke-miterlimit="10" xmlns="http://www.w3.org/2000/svg"><clipPath id="p.0"><path d="m0 0l986.18896 0l0 786.76904l-986.18896 0l0 -786.76904z" clip-rule="nonzero"/></clipPath><g clip-path="url(#p.0)"><path fill="#000000" fill-opacity="0.0" d="m0 0l986.18896 0l0 786.76904l-986.18896 0z" fill-rule="evenodd"/><path fill="#fce5cd" d="m672.1575 654.0315l179.40161 0l0 126.74017l-179.40161 0z" fill-rule="evenodd"/><path stroke="#000000" stroke-width="1.0" stroke-linejoin="round" stroke-linecap="butt" d="m672.1575 654.0315l179.40161 0l0 126.74017l-179.40161 0z" fill-rule="evenodd"/><path fill="#fce5cd" d="m670.8714 502.05774l179.40155 0l0 150.86615l-179.40155 0z" fill-rule="evenodd"/><path stroke="#000000" stroke-width="1.0" stroke-linejoin="round" stroke-linecap="butt" d="m670.8714 502.05774l179.40155 0l0 150.86615l-179.40155 0z" fill-rule="evenodd"/><path fill="#fce5cd" d="m670.87665 427.85565l179.40155 0l0 73.102356l-179.40155 0z" fill-rule="evenodd"/><path stroke="#000000" stroke-width="1.0" stroke-linejoin="round" stroke-linecap="butt" d="m670.87665 427.85565l179.40155 0l0 73.102356l-179.40155 0z" fill-rule="evenodd"/><path fill="#cccccc" d="m632.2362 391.44095l218.74017 0l0 36.409454l-218.74017 0z" fill-rule="evenodd"/><path fill="#fce5cd" d="m707.021 307.99475l143.9685 0l0 83.433075l-143.9685 0z" fill-rule="evenodd"/><path stroke="#000000" stroke-width="1.0" stroke-linejoin="round" stroke-linecap="butt" d="m707.021 307.99475l143.9685 0l0 83.433075l-143.9685 0z" fill-rule="evenodd"/><path fill="#fce5cd" d="m707.021 210.8924l143.9685 0l0 97.102356l-143.9685 0z" fill-rule="evenodd"/><path stroke="#000000" stroke-width="1.0" stroke-linejoin="round" stroke-linecap="butt" d="m707.021 210.8924l143.9685 0l0 97.102356l-143.9685 0z" fill-rule="evenodd"/><path fill="#fce5cd" d="m411.3386 16.322834l439.68503 0l0 194.58269l-439.68503 0z" fill-rule="evenodd"/><path stroke="#000000" stroke-width="1.0" stroke-linejoin="round" stroke-linecap="butt" d="m411.3386 16.322834l439.68503 0l0 194.58269l-439.68503 0z" fill-rule="evenodd"/><path fill="#cccccc" d="m632.27295 210.90552l74.74017 0l0 180.53543l-74.74017 0z" fill-rule="evenodd"/><path fill="#cccccc" d="m411.3386 210.90552l220.94485 0l0 43.74803l-220.94485 0z" fill-rule="evenodd"/><path fill="#fce5cd" d="m488.30447 254.65355l143.96848 0l0 83.43306l-143.96848 0z" fill-rule="evenodd"/><path stroke="#000000" stroke-width="1.0" stroke-linejoin="round" stroke-linecap="butt" d="m488.30447 254.65355l143.96848 0l0 83.43306l-143.96848 0z" fill-rule="evenodd"/><path fill="#fce5cd" d="m411.3386 254.65355l76.97638 0l0 83.43306l-76.97638 0z" fill-rule="evenodd"/><path stroke="#000000" stroke-width="1.0" stroke-linejoin="round" stroke-linecap="butt" d="m411.3386 254.65355l76.97638 0l0 83.43306l-76.97638 0z" fill-rule="evenodd"/><path fill="#fce5cd" d="m411.3386 338.0866l220.94485 0l0 97.102356l-220.94485 0z" fill-rule="evenodd"/><path stroke="#000000" stroke-width="1.0" stroke-linejoin="round" stroke-linecap="butt" d="m411.3386 338.0866l220.94485 0l0 97.102356l-220.94485 0z" fill-rule="evenodd"/><path fill="#fce5cd" d="m234.14174 338.0866l179.40157 0l0 150.86615l-179.40157 0z" fill-rule="evenodd"/><path stroke="#000000" stroke-width="1.0" stroke-linejoin="round" stroke-linecap="butt" d="m234.14174 338.0866l179.40157 0l0 150.86615l-179.40157 0z" fill-rule="evenodd"/><path fill="#fce5cd" d="m99.71654 338.0866l134.4252 0l0 194.5827l-134.4252 0z" fill-rule="evenodd"/><path stroke="#000000" stroke-width="1.0" stroke-linejoin="round" stroke-linecap="butt" d="m99.71654 338.0866l134.4252 0l0 194.5827l-134.4252 0z" fill-rule="evenodd"/><path fill="#cccccc" d="m412.44095 435.18896l220.94485 0l0 53.763794l-220.94485 0z" fill-rule="evenodd"/><path fill="#cccccc" d="m234.14174 488.95276l162.42519 0l0 43.748047l-162.42519 0z" fill-rule="evenodd"/><path fill="#fce5cd" d="m99.71654 532.7008l220.94487 0l0 97.102356l-220.94487 0z" fill-rule="evenodd"/><path stroke="#000000" stroke-width="1.0" stroke-linejoin="round" stroke-linecap="butt" d="m99.71654 532.7008l220.94487 0l0 97.102356l-220.94487 0z" fill-rule="evenodd"/><path fill="#fce5cd" d="m320.6614 532.7008l103.74805 0l0 97.102356l-103.74805 0z" fill-rule="evenodd"/><path stroke="#000000" stroke-width="1.0" stroke-linejoin="round" stroke-linecap="butt" d="m320.6614 532.7008l103.74805 0l0 97.102356l-103.74805 0z" fill-rule="evenodd"/><path fill="#cccccc" d="m396.56693 488.95276l111.90552 0l0 43.748047l-111.90552 0z" fill-rule="evenodd"/><path fill="#fce5cd" d="m424.40945 532.7008l179.40158 0l0 97.102356l-179.40158 0z" fill-rule="evenodd"/><path stroke="#000000" stroke-width="1.0" stroke-linejoin="round" stroke-linecap="butt" d="m424.40945 532.7008l179.40158 0l0 97.102356l-179.40158 0z" fill-rule="evenodd"/><path fill="#cccccc" d="m504.33597 478.937l126.834625 0l0 53.763794l-126.834625 0z" fill-rule="evenodd"/><path fill="#cccccc" d="m631.42255 427.85565l39.212646 0l0 164.66144l-39.212646 0z" fill-rule="evenodd"/><path fill="#cccccc" d="m603.81104 532.6693l28.472412 0l0 164.66138l-28.472412 0z" fill-rule="evenodd"/><path fill="#cccccc" d="m631.42255 592.52234l39.212646 0l0 104.81885l-39.212646 0z" fill-rule="evenodd"/><path fill="#fce5cd" d="m424.40945 697.3307l247.74802 0l0 83.433105l-247.74802 0z" fill-rule="evenodd"/><path stroke="#000000" stroke-width="1.0" stroke-linejoin="round" stroke-linecap="butt" d="m424.40945 697.3307l247.74802 0l0 83.433105l-247.74802 0z" fill-rule="evenodd"/><path fill="#fce5cd" d="m424.47244 629.80316l179.40158 0l0 67.52753l-179.40158 0z" fill-rule="evenodd"/><path stroke="#000000" stroke-width="1.0" stroke-linejoin="round" stroke-linecap="butt" d="m424.47244 629.80316l179.40158 0l0 67.52753l-179.40158 0z" fill-rule="evenodd"/></g></svg>